<svg width="107" height="42" viewBox="0 0 107 42" fill="none" xmlns="http://www.w3.org/2000/svg">
<g clip-path="url(#clip0_1_368)" filter="url(#filter0_d_1_368)">
<path d="M28.2918 12.7684C28.2918 19.9474 23.2554 25.6218 16.5948 25.6218C13.6072 25.6218 10.8729 24.3377 8.90976 21.9859V32.8512C8.90976 33.4855 8.41431 34 7.80339 34H5.10637C4.49545 34 4 33.4855 4 32.8512V1.81411C4 1.17975 4.49545 0.665302 5.10637 0.665302H7.37872C7.98965 0.665302 8.48509 1.17975 8.48509 1.81411V3.90284C10.4035 1.37315 13.3054 0 16.6357 0C23.2963 0 28.2918 5.54289 28.2918 12.7684ZM23.2963 12.7684C23.2963 8.11513 20.1784 4.69966 15.9093 4.69966C12.5232 4.67258 9.28973 8.20023 9.28973 12.8999C9.28973 17.5995 12.1991 20.9222 15.7827 20.9222C20.2156 20.9222 23.2963 17.4216 23.2963 12.7645V12.7684Z" fill="#FFA3FF"/>
<path d="M31.8755 13.7818V1.81409C31.8755 1.17973 32.3709 0.665283 32.9819 0.665283H35.8949C36.5059 0.665283 37.0013 1.17973 37.0013 1.81409V13.8746C37.0013 18.0869 40.164 20.9222 43.1068 20.9222C46.3664 20.9222 49.2124 18.1294 49.2124 13.8746V1.81409C49.2124 1.17973 49.7078 0.665283 50.3188 0.665283H53.2318C53.8428 0.665283 54.3382 1.17973 54.3382 1.81409V13.5652C54.3382 20.9763 50.4044 25.6218 43.2111 25.6218C36.0179 25.6218 31.8829 20.2917 31.8829 13.7818H31.8755Z" fill="#FFA3FF"/>
<path d="M61.0918 13.7818V1.81409C61.0918 1.17973 61.5872 0.665283 62.1982 0.665283H65.1112C65.7222 0.665283 66.2176 1.17973 66.2176 1.81409V13.8746C66.2176 18.0869 69.3803 20.9222 72.3232 20.9222C75.5827 20.9222 78.4287 18.1294 78.4287 13.8746V1.81409C78.4287 1.17973 78.9241 0.665283 79.5351 0.665283H82.4481C83.0591 0.665283 83.5545 1.17973 83.5545 1.81409V13.5652C83.5545 20.9763 79.6207 25.6218 72.4275 25.6218C65.2342 25.6218 61.0992 20.2917 61.0992 13.7818H61.0918Z" fill="#FFA3FF"/>
<path d="M102.784 1.28032V4.17747C102.784 4.90853 102.135 5.45006 101.446 5.2992C100.884 5.17543 100.265 5.09807 99.5836 5.09807C95.5269 5.09807 92.368 7.58134 92.368 12.4125V23.7652C92.368 24.3995 91.8726 24.914 91.2616 24.914H88.3486C87.7376 24.914 87.2422 24.3995 87.2422 23.7652V1.81411C87.2422 1.17975 87.7376 0.665302 88.3486 0.665302H91.0046C91.6155 0.665302 92.111 1.17975 92.111 1.81411V4.61069C93.3924 2.12742 96.421 0 100.306 0C100.805 0 101.368 0.0618885 101.863 0.146985C102.396 0.239818 102.78 0.719454 102.78 1.28032H102.784Z" fill="#FFA3FF"/>
</g>
<defs>
<filter id="filter0_d_1_368" x="0" y="0" width="106.784" height="42" filterUnits="userSpaceOnUse" color-interpolation-filters="sRGB">
<feFlood flood-opacity="0" result="BackgroundImageFix"/>
<feColorMatrix in="SourceAlpha" type="matrix" values="0 0 0 0 0 0 0 0 0 0 0 0 0 0 0 0 0 0 127 0" result="hardAlpha"/>
<feOffset dy="4"/>
<feGaussianBlur stdDeviation="2"/>
<feComposite in2="hardAlpha" operator="out"/>
<feColorMatrix type="matrix" values="0 0 0 0 0 0 0 0 0 0 0 0 0 0 0 0 0 0 0.25 0"/>
<feBlend mode="normal" in2="BackgroundImageFix" result="effect1_dropShadow_1_368"/>
<feBlend mode="normal" in="SourceGraphic" in2="effect1_dropShadow_1_368" result="shape"/>
</filter>
<clipPath id="clip0_1_368">
<rect width="98.7838" height="34" fill="white" transform="translate(4)"/>
</clipPath>
</defs>
</svg>
